# xmcd
#
# Track frame offsets: 
#        150
#        10184
#        18338
#        29269
#        42734
#        54399
#        64294
#        74756
#        89423
#        97924
#        106046
#        121740
#        136871
#        153598
#        167280
#        180991
#        194986
#        206185
#        221375
#        232166
#        254746
#        268482
#        282010
#        297482
#        309598
#
# Disc length: 4300 seconds
#
# Revision: 0
# Processed by: cddbd v1.5.2PL0 Copyright (c) Steve Scherf et al.
# Submitted via: ExactAudioCopyFreeDBPlugin 1.0
#
DISCID=7c10ca19
DTITLE=Various Artist - Hampton Institute Quartet and Sextette Between 1937 and 1
DTITLE=942
DYEAR=1998
DGENRE=Gospel
TTITLE0=Hampton Institute Quartet - Goin' to Shout All Over God's Heav
TTITLE0='n
TTITLE1=Hampton Institute Quartet - Little David, Play on Your Harp
TTITLE2=Hampton Institute Quartet - I Want to Go to Heaven When I Die
TTITLE3=Hampton Institute Quartet - Ezekiel Saw de Wheel
TTITLE4=Hampton Institute Quartet - De Ole Ark A-Moverin' Along
TTITLE5=Hampton Institute Quartet - Mary and Martha Jes' Gone Long
TTITLE6=Hampton Institute Quartet - In Bright Mansions Above
TTITLE7=Hampton Institute Quartet - Reign, Massa Jesus, Reign
TTITLE8=Hampton Institute Sextette - Walk Together Children
TTITLE9=Hampton Institute Sextette - Keep Inching Along
TTITLE10=Hampton Institute Sextette - Old Black Joe
TTITLE11=Hampton Institute Sextette - Water Boy
TTITLE12=Hampton Institute Sextette - Deep River
TTITLE13=Hampton Institute Sextette - Going Home
TTITLE14=Hampton Institute Quartette - Swing Low Sweet Chariot
TTITLE15=Hampton Institute Quartette - My Lord What a Morning
TTITLE16=Hampton Institute Quartette - 'Tis Me
TTITLE17=Hampton Institute Quartette - Steal Away
TTITLE18=Harmony Four - Lead Me to the Rock
TTITLE19=Harmony Four - Do You Want to Be a Follower of the Lord?
TTITLE20=Harmony Four - Children Go Where I Send You
TTITLE21=Richard Huey and His Sundown Singers - Rock My Soul in the Bo
TTITLE21=som of Abraham
TTITLE22=Richard Huey and His Sundown Singers - Wade in the Water
TTITLE23=Richard Huey and Chorus - Wallace Fit the Battle of America
TTITLE24=Royal Harmonaires - Henry Wallace Is the Man
EXTD=
EXTT0=
EXTT1=
EXTT2=
EXTT3=
EXTT4=
EXTT5=
EXTT6=
EXTT7=
EXTT8=
EXTT9=
EXTT10=
EXTT11=
EXTT12=
EXTT13=
EXTT14=
EXTT15=
EXTT16=
EXTT17=
EXTT18=
EXTT19=
EXTT20=
EXTT21=
EXTT22=
EXTT23=
EXTT24=
PLAYORDER=
